<svg width="27" height="36" viewBox="0 0 27 36" fill="none" xmlns="http://www.w3.org/2000/svg">
<path d="M13.5024 0C6.05709 0 0 5.99238 0 13.3571C0 17.8038 3.14874 23.8901 9.35431 31.4425C10.3583 32.6752 11.2822 33.7489 11.9563 34.5338C12.4017 35.0514 12.7576 35.4655 12.9886 35.752C13.1158 35.9085 13.3044 36 13.5024 36C13.7003 36 13.8889 35.9085 14.0161 35.752C14.2471 35.4655 14.603 35.0514 15.0508 34.5314C15.7249 33.7465 16.6487 32.6728 17.6504 31.4449C23.8536 23.8804 27 17.7942 27 13.3571C26.9976 5.99238 20.9453 0 13.5024 0ZM13.5 17.6136C10.4903 17.6136 8.04155 15.1122 8.04155 12.0377C8.04155 8.96328 10.4903 6.46185 13.5 6.46185C16.5097 6.46185 18.9585 8.96328 18.9585 12.0377C18.9585 15.1122 16.5097 17.6136 13.5 17.6136Z" fill="white"/>
</svg>
