<svg width="40" height="29" viewBox="0 0 40 29" fill="none" xmlns="http://www.w3.org/2000/svg">
<path d="M39.6673 27.6874C39.8797 27.3109 40.0018 26.8881 40.0018 26.4432V2.55436C40.0018 2.11437 39.8797 1.69394 39.6673 1.3175L26.5 14.5049L39.6673 27.6874Z" fill="white"/>
<path d="M15.2337 14.0185L18.9986 17.7877C19.6237 18.4134 20.6418 18.4159 21.2668 17.7926L38.6922 0.342212C38.3138 0.127107 37.8889 0 37.447 0H2.55231C2.17875 0 1.81496 0.0928861 1.48047 0.25177L15.2313 14.0185H15.2337Z" fill="white"/>
<path d="M25.5239 15.4826L22.24 18.7703C22.0935 18.9145 21.9373 19.0416 21.7737 19.1492C21.7053 19.1956 21.6296 19.2225 21.5564 19.2616C21.4563 19.3154 21.3586 19.3765 21.2536 19.418C21.1731 19.4498 21.0901 19.4645 21.0095 19.4914C20.9069 19.5231 20.8068 19.5623 20.7019 19.5818C20.6091 19.5989 20.5114 19.5989 20.4186 19.6087C20.3234 19.6185 20.2306 19.6356 20.1354 19.6356C20.0085 19.6356 19.8815 19.616 19.7545 19.5989C19.691 19.5916 19.6276 19.5916 19.5641 19.5794C19.4396 19.5549 19.3199 19.5109 19.2003 19.4718C19.1368 19.4523 19.0733 19.44 19.0123 19.4156C18.8878 19.3643 18.7706 19.2958 18.6534 19.2274C18.5997 19.198 18.5435 19.176 18.4947 19.1443C18.3287 19.0343 18.1724 18.9072 18.0283 18.763L14.7493 15.4826L1.48438 28.7531C1.81887 28.9071 2.18266 29 2.55133 29H37.446C37.8904 29 38.3128 28.8778 38.6888 28.6651L25.5239 15.485V15.4826Z" fill="white"/>
<path d="M0.432155 1.15375C0.161143 1.5644 0 2.04594 0 2.55437V26.4432C0 26.9541 0.161143 27.4356 0.437038 27.8487L13.7704 14.5049L0.432155 1.15375Z" fill="white"/>
</svg>
