<svg width="36" height="36" viewBox="0 0 36 36" fill="none" xmlns="http://www.w3.org/2000/svg">
<path d="M35.9553 28.0716C35.7597 26.9004 34.9599 25.8807 33.5118 24.9556C33.3338 24.837 30.6903 23.079 28.9367 22.3429C26.4537 21.3013 25.0891 22.6659 24.5089 23.246L22.9092 24.8304C22.0632 25.5533 20.6041 25.0919 19.6812 24.2239L15.7127 20.4948L11.7793 16.3218C10.9135 15.3989 10.4499 13.9376 11.1421 13.1246L12.755 11.494C13.3373 10.9117 14.7041 9.54711 13.6603 7.06399C12.9154 5.28625 11.1201 2.59657 11.052 2.49329C10.1225 1.04078 9.10065 0.238709 7.92723 0.0453333C6.23962 -0.238138 4.59595 0.860587 3.33244 1.87141C3.24234 1.95052 1.13062 3.83154 0.3857 6.08173C-1.95675 13.1575 6.99773 22.0462 10.3664 25.3907L10.6081 25.6324C13.5768 28.621 20.903 36 27.4579 36C28.2951 36 29.1191 35.8791 29.919 35.6154C32.1669 34.8727 34.0501 32.7588 34.149 32.6467C35.1378 31.4051 36.2366 29.7636 35.9553 28.0738V28.0716Z" fill="white"/>
</svg>
